<svg viewBox="0 0 512 512" xmlns="http://www.w3.org/2000/svg"><path d="m512 256c0 141.386719-114.613281 256-256 256s-256-114.613281-256-256 114.613281-256 256-256 256 114.613281 256 256zm0 0" fill="#ff9a00"/><path d="m511.0625 277.828125-234.308594-232.632813c-4.902344-6.03125-12.375-9.886718-20.753906-9.886718-14.769531 0-26.746094 11.972656-26.746094 26.746094 0 7.582031 3.164063 14.414062 8.238282 19.269531l11.402343 11.230469-24.125 103.566406h-80.238281c-26.949219 0-49 22.050781-49 49v130.878906c0 14.140625 6.074219 26.933594 15.738281 35.898438l95.742188 95.398437c15.859375 3.074219 32.230469 4.703125 48.988281 4.703125 134.03125 0 243.984375-103.007812 255.0625-234.171875zm0 0" fill="#e67500"/><path d="m256 62.054688-33.40625 143.414062h66.8125zm0 0" fill="#00e8f2"/><path d="m289.410156 205.46875h-33.410156v-143.417969l6.070312 26.050781 25.160157 108.019532zm0 0" fill="#00b7be"/><path d="m367.46875 425h-222.9375c-26.949219 0-49-22.050781-49-49v-130.878906c0-26.949219 22.050781-49 49-49h222.9375c26.949219 0 49 22.050781 49 49v130.878906c0 26.949219-22.050781 49-49 49zm0 0" fill="#fff"/><path d="m416.46875 245.121094v130.878906c0 26.949219-22.046875 49-49 49h-111.46875v-228.878906h111.46875c26.953125 0 49 22.050781 49 49zm0 0" fill="#fff"/><path d="m416.46875 245.121094v130.878906c0 26.949219-22.046875 49-49 49h-111.46875v-228.878906h111.46875c26.953125 0 49 22.050781 49 49zm0 0" fill="#fff5cb"/><path d="m282.746094 62.054688c0 14.769531-11.976563 26.746093-26.746094 26.746093s-26.746094-11.976562-26.746094-26.746093c0-14.773438 11.976563-26.746094 26.746094-26.746094s26.746094 11.972656 26.746094 26.746094zm0 0" fill="#ffdf47"/><path d="m282.75 62.050781c0 12.6875-8.828125 23.308594-20.679688 26.050781-1.949218.457032-3.980468.699219-6.070312.699219v-53.492187c14.769531 0 26.75 11.972656 26.75 26.742187zm0 0" fill="#fdc000"/><path d="m232.300781 279.785156c0 26.921875-21.828125 48.75-48.75 48.75-26.925781 0-48.75-21.828125-48.75-48.75 0-26.925781 21.824219-48.753906 48.75-48.753906 26.921875 0 48.75 21.828125 48.75 48.753906zm0 0" fill="#ffdf47"/><path d="m211.648438 279.785156c0 15.519532-12.578126 28.097656-28.097657 28.097656s-28.101562-12.578124-28.101562-28.097656c0-15.519531 12.582031-28.101562 28.101562-28.101562s28.097657 12.582031 28.097657 28.101562zm0 0" fill="#9331b2"/><path d="m377.199219 279.785156c0 26.921875-21.824219 48.75-48.75 48.75s-48.75-21.828125-48.75-48.75c0-26.925781 21.824219-48.753906 48.75-48.753906s48.75 21.828125 48.75 48.753906zm0 0" fill="#fdc000"/><path d="m356.550781 279.785156c0 15.519532-12.582031 28.097656-28.101562 28.097656s-28.101563-12.578124-28.101563-28.097656c0-15.519531 12.582032-28.101562 28.101563-28.101562s28.101562 12.582031 28.101562 28.101562zm0 0" fill="#5c1b6f"/><path d="m166.621094 353.503906h178.757812v38.59375h-178.757812zm0 0" fill="#ff328e"/><path d="m256 353.5h89.378906v38.601562h-89.378906zm0 0" fill="#c50a5b"/><path d="m199.769531 353.503906h37.285157v38.59375h-37.285157zm0 0" fill="#00e8f2"/><path d="m274.945312 353.503906h37.285157v38.59375h-37.285157zm0 0" fill="#00b7be"/></svg>